<svg id="money-circle" xmlns="http://www.w3.org/2000/svg" width="18" height="18" viewBox="0 0 18 18">
  <rect id="money-circle_Background_" data-name="money-circle (Background)" width="18" height="18" fill="none"/>
  <path id="money-circle-2" data-name="money-circle" d="M7.875,15.75A7.875,7.875,0,1,1,15.75,7.875,7.884,7.884,0,0,1,7.875,15.75Zm0-14.625a6.75,6.75,0,1,0,6.75,6.75A6.758,6.758,0,0,0,7.875,1.125Zm.563,11.25H7.313V9.563H5.063V8.438h2.25V7.313H5.063V6.188H6.7l-1.519-1.9.878-.7L7.875,5.85,9.686,3.586l.878.7-1.519,1.9h1.642V7.313H8.438V8.438h2.25V9.563H8.438v2.811Z" transform="translate(1.125 1.125)" fill="rgba(255,255,255,0.9)"/>
</svg>
