<svg id="edit-1" xmlns="http://www.w3.org/2000/svg" width="18" height="18" viewBox="0 0 18 18">
  <g id="edit-1-2" data-name="edit-1" opacity="0.9">
    <rect id="edit-1_Background_" data-name="edit-1 (Background)" width="18" height="18" fill="none"/>
    <path id="edit-1-3" data-name="edit-1" d="M14.625,14.625H7.313V13.5h7.313v1.124ZM.336,14.444a.338.338,0,0,1-.33-.4L.819,9.976l8.21-8.21,3.65,3.649-8.21,8.21L.4,14.438A.344.344,0,0,1,.336,14.444ZM9.029,3.357h0L1.856,10.531,1.341,13.1l2.572-.515,7.174-7.174L9.029,3.357Zm5.6,9.018h-4.5V11.25h4.5v1.124Zm-.977-7.931h0L10,.8l.795-.8,3.649,3.649-.795.795Z" transform="translate(2.25 1.125)" fill="#fff"/>
  </g>
</svg>
