<svg id="help-circle" xmlns="http://www.w3.org/2000/svg" width="16" height="16" viewBox="0 0 16 16">
  <rect id="help-circle_Background_" data-name="help-circle (Background)" width="16" height="16" fill="none"/>
  <path id="Union" d="M7,14a7,7,0,1,1,7-7A7.008,7.008,0,0,1,7,14ZM7,1a6,6,0,1,0,6,6A6.007,6.007,0,0,0,7,1ZM7,11.2a.6.6,0,1,1,.6-.6A.6.6,0,0,1,7,11.2ZM7.5,9h-1V8.093a1.452,1.452,0,0,1,.9-1.348A1.563,1.563,0,0,0,8.425,5.432a1.425,1.425,0,1,0-2.85,0h-1a2.425,2.425,0,1,1,4.85,0A2.535,2.535,0,0,1,7.778,7.67a.454.454,0,0,0-.278.423V9Z" transform="translate(0.994 1)" fill="#0052d9"/>
</svg>
